<svg width="263" height="265" viewBox="0 0 263 265" fill="none" xmlns="http://www.w3.org/2000/svg">
<path fill-rule="evenodd" clip-rule="evenodd" d="M51.9786 171.177C51.9786 170.542 52.5223 170.005 53.165 170.005H84.11C85.8154 170.005 85.8154 172.349 84.11 172.349H53.165C52.5223 172.349 51.9786 171.812 51.9786 171.177ZM106.033 170.908C106.33 170.591 106.157 171.079 107.269 171.909C108.678 172.959 110.903 173.618 112.559 173.618H172.101C173.015 173.618 175.956 172.349 176.97 171.47C177.316 171.152 177.118 171.177 177.588 171.055C175.413 174.228 171.557 175.962 167.726 176.767C166.589 177.011 125.362 176.865 120.789 176.84C118.54 176.84 116.217 177.109 113.696 176.377C112.979 176.157 112.41 175.986 111.718 175.742C110.359 175.254 109.469 174.619 108.431 173.838L106.602 171.763C106.478 171.543 106.182 170.982 106.033 170.908ZM51.9786 165.245C51.9786 164.61 52.5223 164.097 53.165 164.097H84.11C85.8154 164.097 85.8154 166.417 84.11 166.417H53.165C52.5223 166.417 51.9786 165.88 51.9786 165.245ZM51.9786 159.313C51.9786 158.629 52.6212 158.165 53.2885 158.165H84.11C85.0739 158.165 85.8649 159.288 85.1234 160.07C84.9998 160.167 84.5549 160.485 84.3571 160.485H53.165C52.5223 160.485 51.9786 159.947 51.9786 159.313ZM177.069 135.096L179.59 139.564C179.886 140.149 180.109 140.589 180.405 141.199C181.567 143.469 183.198 146.814 184.088 149.279L185.349 152.697C185.571 153.356 185.769 153.967 185.917 154.577C186.411 156.481 186.906 158.336 187.128 160.338C187.499 163.194 187.524 164.22 187.054 167.125C186.436 171.03 183.495 174.082 179.862 175.498C179.417 175.669 178.28 176.035 177.835 176.084C177.86 176.059 177.909 175.986 177.909 176.01L180.949 173.984C182.605 172.593 184.335 169.737 184.928 167.588C186.016 163.609 185.917 159.557 185.052 155.553L183.544 149.694C181.864 144.788 179.96 140.491 177.439 135.877C177.291 135.633 177.143 135.462 177.069 135.096ZM176.797 134.706C176.822 134.681 176.846 134.73 176.846 134.73L176.797 134.706ZM176.673 134.437C176.673 134.437 176.723 134.462 176.723 134.486L176.673 134.437ZM176.55 134.193C176.154 133.802 176.92 134.559 176.55 134.193V134.193ZM176.278 133.68C176.302 133.656 176.327 133.68 176.327 133.705L176.278 133.68ZM176.031 133.29C176.031 133.265 176.055 133.314 176.055 133.314C176.055 133.314 176.006 133.29 176.031 133.29ZM180.208 91.5211C180.208 88.9578 180.504 82.2934 182.877 81.9272C184.854 81.6343 185.818 87.1513 185.818 89.4705C185.818 92.2046 185.769 95.6711 184.459 98.0634C182.407 101.823 180.208 96.0617 180.208 91.5211ZM162.56 93.3275C162.807 92.2778 162.956 91.5455 163.895 90.6422C166.811 87.9325 171.186 90.4225 171.186 93.3275C171.186 94.9631 170.914 96.2814 169.332 97.3067C168.097 98.1122 167.108 98.2099 165.452 97.8437L167.849 95.964C168.22 95.7199 168.566 95.5978 168.566 94.6214C168.566 93.4496 168.047 92.4243 167.034 91.8872C165.674 91.1549 165.155 91.7163 164.661 92.0337C164.043 92.3999 163.104 93.1811 162.56 93.3275ZM106.157 123.623C110.013 123.623 115.08 123.794 118.713 124.77C121.111 125.405 123.632 125.942 125.757 127.211C127.24 128.09 128.674 129.018 129.761 130.336C132.826 133.973 132.381 139.051 131.244 143.469C130.33 146.985 128.748 150.207 127.092 153.429C126.82 153.991 126.622 154.455 126.301 154.967C125.683 155.993 125.164 156.945 124.546 157.995C123.928 158.971 123.36 159.899 122.717 160.851C121.407 162.779 120.418 164.708 121.778 167.1C122.791 168.907 124.472 169.639 126.795 169.639H139.722C142.021 169.639 143.776 168.736 144.665 166.905C145.926 164.293 144.665 161.217 142.194 160.216C140.538 159.532 136.904 159.825 134.902 159.825C135.026 159.313 135.248 159.069 135.496 158.629C135.644 158.361 135.669 158.239 135.792 158.019C135.891 157.799 135.99 157.677 136.113 157.433C136.336 156.994 136.534 156.627 136.707 156.212L137.3 154.992C139.92 148.767 141.947 144.544 141.947 136.756C141.947 132.557 140.538 128.334 138.066 124.99C136.855 123.354 135.125 121.621 133.395 120.449C131.516 119.18 129.514 118.106 127.413 117.202C124.769 116.104 122.025 115.493 119.158 114.908C117.23 114.517 115.401 114.419 113.424 114.126C112.929 114.053 112.534 114.102 112.04 114.078C111.867 114.078 110.977 114.004 110.952 114.004C110.68 113.907 110.68 114.224 110.828 113.15L111.1 110.831C111.496 107.853 112.163 105.094 113.004 102.262C113.226 101.53 113.374 100.993 113.621 100.309C113.869 99.6746 114.091 98.9911 114.363 98.3075L117.106 91.8872C117.279 91.521 117.428 91.2525 117.527 90.8863C118.07 91.0328 119.306 92.2046 119.776 92.644C122.569 95.2805 127.166 97.9414 130.577 99.6502C133.024 100.846 135.743 101.75 138.684 102.482C141.971 103.312 145.357 103.385 148.867 103.385C148.472 104.996 149.46 107.12 151.339 107.12C152.921 107.12 154.626 105.338 155.788 104.533L159.965 101.579C159.965 102.116 160.113 102.409 160.212 102.873C160.286 103.361 160.311 103.727 160.434 104.191C161.547 108.512 162.98 112.613 164.982 116.592C165.6 117.837 166.243 119.131 167.009 120.254C164.982 121.328 162.931 122.793 161.868 124.868C160.533 127.455 161.3 129.823 162.956 131.996C163.227 132.338 163.4 132.46 163.697 132.826C165.353 134.925 167.182 136.903 168.69 139.1C172.224 144.251 174.35 147.131 177.118 153.21C178.082 155.382 179.145 158.483 179.145 160.875C179.145 164.146 179.071 166.661 176.648 169.224C175.734 170.176 174.424 170.957 173.188 171.47C171.73 172.08 166.712 171.812 164.933 171.812H118.96C117.082 171.812 115.104 171.763 113.3 171.885C111.199 172.031 109.074 171.079 107.689 169.81L107.294 169.419C103.537 165.147 105.391 157.677 106.923 152.844C108.283 148.523 110.186 144.324 112.213 140.296C112.484 139.759 112.707 139.295 112.954 138.831C113.448 137.879 114.264 136.854 114.511 135.853C117.131 135.853 118.738 135.804 119.924 133.729C120.888 132.069 120.567 130.189 119.38 128.871C118.812 128.236 117.7 127.48 116.736 127.48H55.3647C54.3019 127.48 53.2391 128.236 52.6706 128.798C51.0641 130.409 51.0888 133.216 52.8436 134.754C54.3019 136.024 55.2164 135.853 57.5892 135.853L51.4348 140.589C47.4802 144.031 43.575 149.646 41.3999 154.284C41.2022 154.674 41.0539 155.065 40.8314 155.529C39.2743 159.02 38.1373 162.901 37.5442 166.71C36.7285 172.056 36.8274 174.668 36.8274 180.209C36.8274 180.698 36.9262 181.161 37.0993 181.479H102.499C102.969 179.599 101.906 172.202 101.214 169.883C100.126 166.221 99.5083 163.56 97.4816 160.167C96.6412 158.776 95.8009 157.482 94.8122 156.212C94.6145 155.968 94.4662 155.846 94.2685 155.602C93.0079 154.064 92.7113 153.942 91.5002 152.77C91.1295 152.404 90.734 152.136 90.2891 151.794C89.0038 150.793 87.6692 149.865 86.1862 149.133C85.6918 148.889 85.2469 148.669 84.7032 148.401C81.4406 146.765 77.7579 145.935 74.0751 145.496C71.9742 145.252 69.7991 145.129 67.6488 145.129L68.1184 144.959C68.415 144.885 68.3903 144.91 68.6869 144.861C69.1318 144.812 69.3295 144.763 69.8733 144.763C75.5334 144.617 77.659 144.299 83.8134 146.204C87.1501 147.229 90.0419 149.06 92.7855 151.135L94.4168 152.624C100.596 158.629 103.364 167.076 104.773 175.4C105.91 182.089 104.551 181.503 106.948 181.479C128.501 181.357 150.029 181.479 171.582 181.479C173.534 181.479 175.067 181.625 177.069 181.625C182.185 181.625 187.647 181.845 192.516 180.234C195.136 179.355 197.756 178.305 199.758 176.303C201.365 174.692 202.008 172.812 202.527 170.664C202.848 169.395 202.403 168.589 203.046 168.589H229.023C229.023 167.686 228.504 166.221 228.306 165.318C228.158 164.659 228.059 164.537 227.91 163.902C227.737 163.292 227.639 162.975 227.441 162.437C227.119 161.485 226.798 160.68 226.427 159.825C224.747 155.724 222.053 151.94 218.617 149.084C217.258 147.961 215.799 146.936 214.242 146.082C208.582 142.981 203.046 141.907 196.001 141.907L192.986 135.096C191.8 135.121 191.651 135.462 190.391 134.584C188.413 133.192 187.029 129.848 188.488 127.675C189.031 126.845 188.858 126.991 188.092 125.746C186.733 123.525 185.472 121.255 184.014 119.082C182.309 116.568 180.999 114.956 179.565 112.881C177.835 110.391 176.031 108.072 176.031 104.801C176.031 102.726 177.909 101.335 179.689 101.09C182.21 100.724 183.594 101.53 185.225 99.1864C187.598 95.7199 187.969 84.3196 184.805 81.1704C183.297 79.7057 180.653 80.4625 178.502 80.5601C177.86 80.609 176.945 80.731 176.302 80.8531L172.348 81.7075C170.766 82.1225 169.332 82.6595 167.899 83.3919C165.526 84.6125 163.524 86.3946 162.066 88.5916C161.744 89.0799 161.522 89.5437 161.25 90.0808L160.706 91.3746C160.657 91.5455 160.632 91.6187 160.558 91.8628C159.965 93.4496 160.138 95.3049 159.297 95.5246C158.927 93.9378 156.925 92.5463 155.269 92.5463C153.514 92.5463 152.846 93.0102 151.24 93.2299C148.101 93.6449 145.011 93.7669 141.897 93.1322C140.735 92.8881 139.351 92.5463 138.387 92.1802C135.842 91.2525 133.345 90.2272 131.071 88.7137C129.094 87.3954 127.216 86.0284 125.386 84.5148C125.164 84.3195 125.016 84.1731 124.818 83.9534L122.495 81.854C122.569 81.4634 122.643 81.4634 122.767 81.0972C122.841 80.8531 122.89 80.5845 122.964 80.2672C124.25 75.4092 121.778 70.1607 117.205 67.988C116.662 67.7195 116.019 67.451 115.45 67.2801C110.384 65.913 104.872 68.3298 102.548 72.8704C102.202 73.5783 101.807 74.1398 101.387 74.8233C99.6566 77.7528 97.5063 81.8295 96.2211 84.9298L93.1562 92.5952C92.4394 94.4993 91.8957 96.4522 91.3272 98.4052C90.5857 100.871 90.1161 103.385 89.6465 105.875C89.3004 107.682 89.251 109.464 88.9791 111.295C88.4601 114.908 89.424 117.935 91.6979 120.498C93.1809 122.158 95.2571 123.476 97.5557 123.867C100.719 124.428 103.636 123.623 106.157 123.623Z" fill="#FF5371"/>
<path fill-rule="evenodd" clip-rule="evenodd" d="M34.8748 86.8828V118.081C34.8748 120.864 36.4319 123.33 38.78 124.55C39.3979 124.868 40.6337 125.283 41.5482 125.283H74.5694C75.5828 125.283 76.6703 124.843 77.4118 124.477C78.9937 123.696 80.3036 122.158 80.8474 120.4C81.1193 119.546 81.2181 118.228 81.2181 117.031V87.9081C81.2181 84.4661 80.18 81.7563 77.2388 80.3649C76.3984 79.9743 75.2368 79.6569 74.0504 79.6569H42.3144C40.1146 79.6569 38.4834 80.2916 37.0745 81.6831C36.3825 82.3666 35.987 82.8793 35.5421 83.8069C35.1714 84.5637 34.8748 85.7843 34.8748 86.8828Z" fill="#FF5371"/>
<path fill-rule="evenodd" clip-rule="evenodd" d="M207.099 172.593C207.396 173.008 208.187 173.008 209.175 173.374C209.843 173.643 210.535 174.033 211.153 174.399C213.081 175.522 214.366 176.816 215.602 178.623C217.431 181.283 217.801 183.725 217.801 186.898C217.801 191.805 214.119 196.541 209.67 198.591C200.698 202.741 190.317 195.808 190.119 186.898C190.07 185.043 190.86 185.311 187.301 185.8C185.398 186.068 183.495 186.141 181.493 186.117C180.677 186.117 180.578 186.044 180.578 186.776C180.578 188.631 180.875 190.267 181.27 191.781C181.691 193.416 182.432 195.369 183.272 196.883L187.548 202.595C189.995 204.987 193.184 206.891 196.446 207.966C197.188 208.21 197.83 208.478 198.671 208.625C206.753 210.187 214.761 208.161 220.322 202.668C222.324 200.666 223.783 198.713 225.117 196.053C227.861 190.56 228.034 183.798 225.908 177.988C225.463 176.743 224.425 174.741 223.684 173.618C223.461 173.325 223.041 172.471 222.621 172.471C221.138 172.471 207.322 172.324 207.099 172.593Z" fill="#FF5371"/>
<path fill-rule="evenodd" clip-rule="evenodd" d="M124.324 66.3769C126.672 66.3769 127.759 66.2548 129.885 65.4248C131.022 64.9854 132.554 64.0822 133.345 63.3254C134.803 61.9583 134.754 62.1536 135.965 60.4692C136.459 59.7857 137.621 57.6618 137.621 56.5877C137.621 56.3436 136.583 56.0995 136.286 56.0018L125.708 52.5109C125.683 52.5109 125.658 52.4865 125.609 52.4621C126.622 52.4621 127.537 52.7551 128.254 52.8283C128.822 52.9015 129.094 52.9259 129.662 52.9992L136.336 54.0001C139.673 54.4639 145.753 55.5868 149.361 55.001C149.979 54.9033 150.375 54.7568 150.696 54.2686C150.325 52.7307 146.198 51.1927 144.69 50.5336C144.171 50.3139 143.553 50.0453 143.009 49.8501L137.572 47.8727C136.855 47.653 137.053 47.7506 136.707 47.0671C136.608 46.8962 136.558 46.823 136.459 46.6521C135.372 44.87 134.803 44.1377 133.024 42.6974C131.566 41.5012 128.501 39.9633 125.881 39.9633C121.654 39.9633 120.122 40.2074 116.563 42.6241C116.143 42.8927 116.068 43.0636 115.722 43.3321C115.154 43.7715 115.327 43.6494 114.882 44.1865C112.88 46.53 112.287 47.5798 111.57 50.5824C111.199 52.1204 111.249 53.3898 111.397 54.9033C111.521 55.953 112.089 57.7107 112.534 58.6871C113.127 60.0542 114.215 61.5189 115.203 62.4954C117.601 64.8389 120.814 66.3769 124.324 66.3769Z" fill="#FF5371"/>
<path fill-rule="evenodd" clip-rule="evenodd" d="M48.9878 186.263C48.9878 187.899 49.1361 188.021 49.235 189.339C49.4821 192.147 50.8168 195.296 52.2009 197.761C54.376 201.643 58.825 205.524 62.9032 207.184C63.6447 207.502 64.1637 207.721 64.9546 208.014C69.5025 209.699 75.3356 209.504 79.9822 207.966L82.1326 207.136C83.4178 206.501 84.7278 205.842 85.8648 205.012C87.4961 203.864 87.4713 203.791 88.7072 202.668L89.4239 201.96C92.4146 198.689 94.4167 195.369 95.3559 190.902C95.43 190.56 95.4548 190.121 95.5289 189.681L95.8502 187.02C95.8996 186.459 95.9738 185.873 95.4548 185.873H86.7051C86.2355 185.873 86.2355 186.581 86.1861 187.045C85.8895 192.025 82.9235 196.37 78.4993 198.396C72.8392 200.959 66.7342 199.91 62.3347 195.516C61.7662 194.93 61.3213 194.271 60.8517 193.636C59.9125 192.391 59.0721 190.218 58.8002 188.68C58.5531 187.24 58.6767 185.873 58.1082 185.873H49.3585C49.0619 185.873 48.9878 185.97 48.9878 186.263Z" fill="#FF5371"/>
</svg>
